<svg xmlns="http://www.w3.org/2000/svg" viewBox="0 0 52 72">
  <g fill="none" fill-rule="evenodd">
<path fill="#7D97AD" fill-rule="nonzero" d="M15.3166612,36.1194463 C15.2988243,36.6323085 15.3664346,37.1445689 15.51674,37.6353751 C15.6608346,38.0590961 15.8439073,38.4686318 16.0636219,38.8587561 C16.137877,38.9741142 16.1793649,39.1073869 16.1836691,39.2443871 C16.1624188,39.4571691 16.0377962,39.6460137 15.8502046,39.7496967 L14.7831178,40.4544706 C14.6515291,40.5520027 14.4934516,40.6076234 14.329606,40.614042 C14.1351514,40.6058038 13.9523177,40.5194643 13.8227398,40.3746849 C13.589315,40.1353693 13.3875953,39.8672356 13.2225035,39.5768276 C13.049102,39.2975776 12.8757004,38.9651371 12.6889602,38.5928037 C11.4699136,40.0964164 9.62611478,40.9591151 7.68699128,40.9331849 C6.42679084,41.0114138 5.18900228,40.5744767 4.25897524,39.7231015 C3.40032729,38.8501935 2.94588828,37.6597497 3.00514837,36.4385892 C2.95389248,35.1014344 3.52493679,33.8156228 4.55242409,32.9546127 C5.7342021,32.0174025 7.2194687,31.5443337 8.72740081,31.6248507 C9.32986443,31.6309184 9.93132456,31.6753341 10.5281096,31.7578269 C11.1550231,31.8509102 11.861968,31.9705888 12.4888814,32.1301602 L12.4888814,30.8801839 C12.577467,29.9238218 12.2905827,28.9704777 11.6885664,28.2206599 C10.9004586,27.6101461 9.90733138,27.3245468 8.91414098,27.4228026 C8.29389834,27.4274994 7.67625902,27.5033517 7.07341642,27.6488622 C6.44596465,27.7975014 5.83064612,27.9930874 5.23269186,28.2339575 C5.04419639,28.3230971 4.84769543,28.3943325 4.64579417,28.4467194 C4.55735633,28.4598275 4.46746035,28.4598275 4.3790225,28.4467194 C4.13892799,28.4467194 4.01888074,28.2605527 4.01888074,27.9148146 L4.01888074,27.0770645 C4.00240749,26.8703583 4.04397462,26.6631609 4.13892799,26.4786716 C4.26573136,26.3257732 4.42524488,26.2030979 4.60577842,26.1196358 C5.30013112,25.795378 6.02361989,25.5371467 6.766629,25.3483739 C7.63882816,25.1303635 8.53517071,25.0231327 9.43434575,25.029231 C11.0368686,24.8725315 12.6369562,25.3501284 13.8894327,26.358993 C14.9149026,27.4987646 15.4260465,29.0082578 15.3033226,30.5344458 L15.3166612,36.1194463 Z M8.39393622,38.6991847 C8.99390866,38.6966537 9.58915556,38.593255 10.1546293,38.3933394 C10.7796835,38.1781704 11.3365117,37.8019746 11.7685979,37.3029346 C12.0429504,36.9924392 12.2435563,36.6242762 12.3554956,36.2258273 C12.4702405,35.7423703 12.5240104,35.2465261 12.5155586,34.7497914 L12.5155586,34.0317199 C11.9924939,33.9072928 11.4624577,33.8140442 10.9282671,33.7524699 C10.3973666,33.6848344 9.86284517,33.6493091 9.32763708,33.646089 C8.42791451,33.5758541 7.53176144,33.8203638 6.79330616,34.3375652 C6.21881289,34.8199529 5.90716443,35.5448995 5.95297539,36.2923154 C5.90704306,36.9549856 6.13334103,37.6077943 6.57988882,38.1007918 C7.08018266,38.5337054 7.73336773,38.7491691 8.39393622,38.6991847 Z M22.0926618,40.5209587 C21.8632371,40.5394339 21.63397,40.4834593 21.4390712,40.3613872 C21.251656,40.1831987 21.1255936,39.9504668 21.0789294,39.6965062 L17.0773543,26.5451597 C17.0067195,26.3334013 16.9575654,26.1151146 16.9306298,25.8935763 C16.9176913,25.7807839 16.9570778,25.6682691 17.0376012,25.5879929 C17.1181246,25.5077168 17.230986,25.4684512 17.3441259,25.4813501 L19.0247875,25.4813501 C19.2585086,25.4618796 19.4923179,25.5178216 19.6917167,25.6409215 C19.8637902,25.8335586 19.9832236,26.0671124 20.0385199,26.3191001 L22.9329925,37.5422917 L25.6007093,26.3058025 C25.643778,26.0523632 25.7596056,25.8168006 25.9341739,25.6276239 C26.1384198,25.5043524 26.3764886,25.4485083 26.6144417,25.4680524 L27.9483,25.4680524 C28.190432,25.4492594 28.4325202,25.5049543 28.6419064,25.6276239 C28.811635,25.8184062 28.9227585,26.0538184 28.9620324,26.3058025 L31.6297492,37.6885655 L34.5775762,26.3058025 C34.6367253,26.0524794 34.7608189,25.8188002 34.9377179,25.6276239 C35.1363566,25.5027169 35.3707807,25.4466279 35.6046471,25.4680524 L37.1919386,25.4680524 C37.3077138,25.4542851 37.4232958,25.4952105 37.5044226,25.5786972 C37.5855495,25.6621839 37.622912,25.7786518 37.6054347,25.8935763 C37.6107964,25.9865829 37.6107964,26.0798197 37.6054347,26.1728263 L37.4853874,26.5850526 L33.3370879,39.7231015 C33.2904237,39.977062 33.1643612,40.209794 32.9769461,40.3879825 C32.7646563,40.5147042 32.5140135,40.56185 32.2700012,40.5209587 L30.9361428,40.5209587 C30.6919619,40.5434774 30.4473605,40.4825149 30.2425365,40.3480896 C30.0655226,40.1569074 29.9535005,39.9149382 29.9224104,39.6566134 L27.2546937,28.7126718 L24.5869769,39.6566134 C24.5463839,39.9147618 24.4304005,40.1552664 24.2535123,40.3480896 C24.053694,40.482543 23.8132418,40.5436465 23.5732446,40.5209587 L22.0926618,40.5209587 Z M43.9946163,40.9730778 C43.096454,40.9752336 42.2011247,40.8725869 41.3268996,40.6672325 C40.6423775,40.5266353 39.9788787,40.2986993 39.3527892,39.9890539 C39.1330972,39.8881512 38.9510218,39.7205977 38.8325844,39.5103395 C38.7656577,39.3593575 38.7293903,39.1966555 38.7258757,39.0316252 L38.7258757,38.1672799 C38.7258757,37.8215417 38.8592616,37.6353751 39.1126947,37.6353751 C39.218584,37.616732 39.3269313,37.616732 39.4328207,37.6353751 L39.8596554,37.8082441 C40.4652451,38.0690397 41.0952253,38.2694798 41.7403957,38.406637 C42.4081808,38.5381704 43.087167,38.6049698 43.7678604,38.6061013 C44.635346,38.656355 45.4995632,38.4628488 46.2621756,38.0476013 C46.8132761,37.7370093 47.1620968,37.1624668 47.1825379,36.5316726 C47.1934265,36.0905465 47.0250677,35.6637487 46.7156874,35.3481844 C46.2195707,34.9291281 45.6364856,34.6248569 45.0083487,34.4572438 L42.5273721,33.6726842 C41.4841485,33.3839683 40.5537161,32.7856825 39.8596554,31.9572912 C39.2867541,31.2571015 38.9630581,30.3872096 38.9392931,29.4839338 C38.922805,28.8258664 39.0791428,28.1749318 39.3928049,27.5956717 C39.7124199,27.0779814 40.1290579,26.6265048 40.6199546,26.2659097 C41.1511769,25.8655537 41.7528846,25.5678789 42.3939863,25.3882667 C43.0920979,25.188827 43.8153082,25.0903068 44.5414983,25.0957191 C44.9249548,25.0913403 45.3082525,25.1135566 45.6886165,25.1622072 C46.0754354,25.1622072 46.4489157,25.2818858 46.7957189,25.3616715 C47.1248647,25.4327507 47.449912,25.5215312 47.7694355,25.6276239 C48.0135214,25.7034936 48.2501513,25.8014157 48.4763805,25.9201715 C48.6754249,26.0276283 48.8520024,26.1720675 48.9965852,26.3456954 C49.1019725,26.5123763 49.1532108,26.7074127 49.1433097,26.9041954 L49.1433097,27.7020527 C49.1433097,28.0610884 49.0099238,28.2472551 48.7564907,28.2472551 C48.5234251,28.2157001 48.2977048,28.1436914 48.0895615,28.0344932 C47.0551624,27.5857399 45.9362,27.3635417 44.8082699,27.3829098 C44.0233871,27.3414967 43.2413813,27.5065893 42.5407107,27.8616241 C42.1165077,28.1530754 41.8403446,28.6139712 41.784014,29.1244952 C41.7276834,29.6350193 41.8967497,30.14474 42.2472619,30.5211482 C42.8003145,30.9646537 43.4412787,31.2864175 44.1280022,31.4652792 L46.5422858,32.2365412 C47.5796259,32.4939896 48.5115468,33.0653609 49.2100026,33.8721485 C49.7355094,34.5536383 50.0130171,35.3929829 49.996979,36.2524225 C50.0221497,36.9294107 49.8897528,37.603016 49.6101601,38.2204704 C49.2766801,38.8094271 48.8221324,39.3214886 48.2763017,39.7231015 C47.7107163,40.1547164 47.0679297,40.4751227 46.3822228,40.6672325 C45.6071607,40.8948551 44.8025772,41.006882 43.9946163,40.999673 L43.9946163,40.9730778 Z M46.5822059,49.973752 C40.9473515,53.9108046 32.7633964,55.9995945 25.7064121,55.9995945 C16.2946784,56.0419231 7.20485025,52.769138 0.215404244,46.8215781 C-0.307832233,46.3658421 0.215404244,45.7581942 0.792306,46.0999962 C8.55483367,50.2880223 17.3414611,52.4916459 26.2833138,52.4929593 C32.9742469,52.450536 39.5902186,51.1598373 45.750394,48.6951594 C46.7163691,48.3533574 47.5213483,49.328126 46.5822059,49.973752 Z M49.5802549,47.4030295 C48.9054295,46.5279081 45.1314062,46.9971761 43.431846,47.2001028 C42.9194786,47.2635174 42.844498,46.8069323 43.3068784,46.4771764 C46.3185989,44.3337631 51.2423247,44.9552261 51.817176,45.6654696 C52.3920272,46.375713 51.6672148,51.4108319 48.8429457,53.8079035 C48.4180556,54.1757082 48.0056623,53.9854644 48.1931138,53.4908306 C48.7804618,51.8800999 50.1925964,48.2781509 49.5802549,47.4030295 Z">
</path>
    <rect width="52" height="72"></rect>
  </g>
</svg>
