
<svg xmlns="http://www.w3.org/2000/svg" viewBox="0 0 43 72">
  <g fill="none" fill-rule="evenodd">
    <path fill="#7D97AD" fill-rule="nonzero" d="M0,22.493 L6.52,22.493 L6.52,39.786 C6.52,42.529 7.777,44.157 8.795,44.843 C7.733,45.764 4.505,46.579 2.08,44.607 C0.65,43.45 0,41.521 0,39.721 L0,22.493 Z M40.703,35.05 L42.696,35.05 L42.696,28.686 L40.508,28.686 C39.663,24.85 36.219,22 32.103,22 C27.359,22 23.503,25.814 23.503,30.507 L23.503,45.357 C24.847,45.55 26.471,45.336 27.836,44.2 C29.266,43.043 29.916,41.114 29.916,39.314 L29.916,38.757 L33.165,38.757 L33.165,32.393 L29.915,32.393 L29.915,30.464 C29.915,29.264 30.89,28.3 32.103,28.3 C32.6805937,28.2952066 33.2362641,28.5208892 33.6469447,28.9270651 C34.0576254,29.3332411 34.2894228,29.8863886 34.291,30.464 L34.291,36.85 C34.291,41.543 38.147,45.357 42.891,45.357 L42.891,39.014 C41.678,39.014 40.703,38.05 40.703,36.871 L40.703,35.05 Z M16.052,28.664 L16.052,38.029 C16.052,38.564 15.597,38.993 15.055,38.993 C14.514,38.993 14.059,38.564 14.059,38.029 L14.059,28.664 L7.625,28.664 L7.625,39.657 C7.625,41.629 8.297,44.136 11.395,44.95 C14.492,45.764 16.268,44.071 16.268,44.071 C16.095,45.186 15.055,46 13.344,46.171 C12.044,46.3 10.398,45.871 9.574,45.529 L9.574,51.357 C11.676,51.979 13.886,52.171 16.074,51.743 C20.016,50.993 22.507,47.736 22.507,43.386 L22.507,28.62 L16.052,28.62 L16.052,28.663 L16.052,28.664 Z"></path>
    <rect width="43" height="72"></rect>
  </g>
</svg>
